<?xml version="1.0"?><svg width="1600" height="1200" xmlns="http://www.w3.org/2000/svg">
 <title>people</title>

 <g>
  <title>Layer 1</title>
  <path d="m291,640l-1,2l0,2l0,1l-1,0l0,1l0,0l-1,0l0,0l0,0l0,1l0,0l-1,1l0,1l-1,0l-1,0l0,-1l1,-1l0,-1l0,-2l1,-2q1,-3 1,-12q0,-9 -1,-21q-1,-12 2,-18q4,-5 10,-15q5,-10 9,-57q4,-47 4,-61q-2,-15 -4,-25q-2,-10 -4,-25q-2,-16 -4,-19q-2,-3 -6,-8q-4,-5 1,-14q5,-9 10,-19q5,-10 5,-15q-2,-5 -11,-16q-9,-11 -15,-14q-5,-3 -12,-7q-6,-4 -14,-14l-8,-9l-2,-1q-2,-2 -2,-4q0,-3 5,-2q5,2 32,12q27,11 29,16q2,4 7,6q5,1 15,20q10,19 12,26q2,8 4,11q0,3 0,14q0,11 2,13q0,2 0,14q0,11 -3,20q-3,10 -5,22q-2,13 -5,38q-3,24 -5,29q-2,5 -6,15q-4,9 -14,36q-8,26 -16,53q-6,27 -7,29z" stroke-width="1px" stroke="#FAFAFA" fill-rule="evenodd" fill="#FAFAFA" id="svg_1"/>
  <path d="m785,365l0,1l-2,0l-2,0l0,-1l-1,0l0,-2l0,-2l0,-6q1,-5 2,-13q1,-6 2,-5q2,1 0,7q0,7 -2,10q0,2 1,6q1,4 2,5z" stroke-width="1px" stroke="#DFDFDF" fill-rule="evenodd" fill="#DFDFDF" id="svg_2"/>
  <path d="m1239.602539,352.043304l0,7.351166l1.325928,1.470245l1.325928,1.470215l0,0l0,1.470245l0,0l0,0l1.325806,0l0,0l0,-1.470245l1.325928,0l0,-4.410675l0,-5.880951l1.325928,-2.94046q1.325806,-1.470245 1.325806,-11.761841q0,-8.821411 2.651855,-16.172546q2.651733,-7.351196 3.977661,-7.351196q2.651733,-1.470215 6.629395,-22.053467q5.303589,-20.583252 10.607056,-38.226013q7.955322,-17.642792 10.607178,-27.934418q2.651733,-10.291611 3.977661,-11.761841q2.651733,0 3.977661,-5.880951q0,-5.88092 -6.629517,-17.642776l-6.629395,-13.232086l-1.325928,-1.47023l-1.325806,-1.47023l0,-1.47023l0,-1.47023l1.325806,0l0,-1.47023l1.325928,0l2.651733,0l0,-2.94046l0,-1.47023l1.325928,0l0,-1.470245l1.325928,0l2.651733,0l1.325928,1.470245l1.325806,1.47023l7.955444,2.94046q7.955322,4.41069 13.258789,13.232086q5.303589,8.821381 5.303589,14.702332q0,5.880905 -2.651733,13.232056q-2.651855,8.821411 -2.651855,14.702332q0,4.410706 -11.932983,44.106964q-11.932983,39.696259 -14.584717,49.987885q-2.651855,11.761841 -2.651855,20.583252q0,8.821381 -5.303467,32.345093q-5.303589,24.993927 -9.28125,38.226013q-3.977661,13.232117 -1.325928,23.523743q0,10.291626 10.607178,32.345093q9.281128,23.523682 15.910645,32.345123q6.629395,11.761841 7.955322,11.761841l1.325928,0l1.325806,1.470215l1.325928,1.470215l0,0l-1.325928,0l0,0l0,0l-1.325806,1.470276q-1.325928,1.470215 -6.629517,4.410645q-5.303589,2.940491 -10.607056,8.821411q-5.303589,7.351135 -5.303589,14.702332l0,5.88092l1.325928,1.470276l1.325806,1.470154l0,0l0,0l0,1.470276l0,0l1.325928,0l0,1.470215l0,0l1.325928,0l0,0l0,0l1.325806,1.470276l1.325928,1.470154l0,0l0,0l1.325928,0l0,0l0,1.470276l1.325806,0l0,0l0,1.470215l0,0l0,0l1.325928,0l0,0l1.325928,1.470276l1.325806,1.470215l1.325928,0l1.325928,0l0,-1.470215l1.325928,0l10.607056,-13.232117q10.607056,-14.702271 15.910645,-17.642761q3.977661,-2.940491 13.258911,-1.470276q9.281128,1.470276 26.5177,16.172546q17.236572,14.702332 35.79895,32.345154q19.888306,19.112976 21.214233,23.523682q1.325928,5.88092 3.977661,7.351135q2.651733,1.470276 3.977661,2.940491l1.325928,1.470215l1.325806,0l1.325928,0l1.325928,1.470276l1.325806,1.470215l2.651855,0l1.325928,0l0,-1.470215l1.325806,0l0,-1.470276l0,-1.470215l5.303589,-20.583252q5.303589,-20.583252 9.28125,-23.523682q5.303467,-1.470215 11.932983,-1.470215q7.955322,0 11.932983,4.410645q3.977661,4.410706 6.629395,11.761902q2.651733,7.351135 1.325928,19.112976q-1.325928,11.761841 -2.651855,20.583252q-1.325806,7.351135 -1.325806,26.464172q0,17.642822 -3.977661,23.523743q-2.651855,5.88092 -6.629517,5.88092q-2.651733,2.94043 -7.955322,1.470215q-5.303467,-1.470215 -23.865967,-17.642761q-17.236572,-16.172546 -54.361328,-42.63678q-37.124878,-26.464172 -39.776733,-24.993896q-3.977661,1.470215 -11.932983,17.642761q-7.955322,16.172546 -14.584717,22.053528q-6.629395,5.88092 -19.888306,11.761841q-13.258911,7.351135 -18.5625,14.702271q-2.651733,5.880981 -3.977661,8.821411q-1.325806,4.410706 -1.325806,32.345093q0,29.404663 0,39.696289q0,10.291626 0,22.053467q0,11.761841 5.303467,23.523682q2.651855,10.291626 6.629517,26.464233q3.977661,16.172546 9.28125,38.226013q7.955322,23.523682 5.303467,26.464172q-2.651733,2.94043 -13.258911,5.88092q-11.932983,4.410706 -7.955322,22.053467q5.303589,16.172546 7.955322,19.113037q3.977661,2.94043 10.607178,4.410645q7.955322,2.940491 9.28125,7.351196q1.325806,2.94043 1.325806,10.291626q0,7.351135 -5.303467,17.642761q-5.303589,10.291626 -2.651855,16.172546q2.651855,7.351135 1.325928,14.702393q-1.325928,8.821289 -6.629395,19.112976q-5.303589,10.291626 -5.303589,11.761841q-1.325928,1.470215 -2.651855,1.470215l-1.325806,0l-6.629517,1.470215l-7.955322,0l0,-1.470215l0,-1.470215l-1.325806,-2.94043q-1.325928,-2.940491 -1.325928,-5.88092q0,-2.940491 0,-24.994019q0,-22.053467 -3.977661,-33.815308q-3.977661,-11.761841 -6.629395,-36.755798q-5.303589,-26.464172 -6.629517,-27.934387q-2.651733,-1.470215 -7.955322,-13.232117q-3.977661,-13.232056 -6.629395,-27.934387q-2.651733,-14.702271 -7.955322,-32.345154q-5.303589,-17.642761 -5.303589,-29.404602q0,-11.761841 1.325928,-23.523682q1.325928,-11.761902 -1.325928,-17.642822q-2.651733,-5.88092 -2.651733,-16.172546q0,-8.82135 -2.651855,-14.702332q-2.651733,-5.88092 -3.977661,-20.583252q-1.325806,-13.232056 -1.325806,-30.874817q-2.651855,-17.642761 -6.629517,-32.345154q-3.977661,-14.702271 -7.955322,-30.874817q-3.977661,-17.642822 -9.281128,-17.642822q-3.977661,-1.470215 -5.303589,-8.82135q0,-7.351196 -10.607056,-33.815369q-10.607178,-26.464172 -15.910645,-42.636688l-5.303589,-17.642822l-1.325928,-2.94046l0,-2.94046l-1.325928,0l-1.325806,0l0,1.470245l-1.325928,0l0,1.470215l0,1.470245l-1.325928,0l0,1.470215l-3.977661,2.94046q-2.651733,2.94046 -5.303467,2.94046q-1.325928,0 -6.629517,7.351166q-6.629395,7.351196 -19.888306,27.934387q-13.258789,20.583252 -34.473022,38.226074q-18.5625,16.172546 -19.888306,26.464172q-1.325928,11.761841 -1.325928,32.345093q0,22.053467 -5.303589,38.226013q-2.651733,17.642822 -5.303467,29.404663q0,10.291626 0,29.404602q0,19.113037 2.651733,26.464172q2.651733,7.351196 2.651733,17.642822q0,11.761841 0,26.464233q0,16.172546 2.651855,23.523682q2.651733,7.351074 6.629395,11.76178q3.977661,4.410767 3.977661,14.702393q0,10.291626 -6.629395,20.583252q-6.629517,8.82135 -2.651855,17.642761q2.651855,8.82135 6.629517,23.523682q2.651733,14.702332 5.303467,26.464172q2.651855,13.232117 2.651855,26.464172q0,13.232056 -3.977661,17.642761q-2.651855,5.88092 -3.977661,5.88092l-1.325928,0l-2.651733,1.470337l-2.651855,1.470154l-2.651733,0l-2.651733,0l-1.325928,-1.470154l-1.325928,-1.470337l-1.325806,0q-1.325928,0 -3.977661,-4.410583q-1.325928,-4.410767 -9.28125,-48.5177q-7.955322,-42.636719 -18.562439,-70.571106q-10.607117,-29.404724 -15.910645,-38.226135l-6.629456,-8.821289l0,0l-1.325867,0l0,0l0,0l0,-1.470215l0,0l-1.325928,0l0,-1.470337l0,0l-1.325867,0l0,0l0,0l-1.325867,-1.470215l-1.325928,-1.470154l-1.325867,0l-1.325867,0l-1.325928,1.470154l-1.325867,1.470215l0,0l0,0l0,1.470337l0,1.470215l0,0l0,0l0,1.470154l0,0l1.325867,0l0,1.470215l1.325928,0l1.325867,0l2.651794,5.88092q3.977661,4.410706 2.651733,22.053589q-1.325867,17.642761 -2.651733,39.696228q-1.325928,22.053467 1.325867,29.404602q2.651794,8.821411 5.303589,49.987915q2.651733,42.636658 -1.325928,47.047363q-3.977661,5.88092 -3.977661,5.88092l0,0l-1.325867,1.470337l-1.325928,1.470215l-1.325867,0l-1.325867,0l-5.303589,0l-3.977661,0l0,0l-1.325867,0l0,0q0,0 -3.977661,-8.821472q-3.977661,-8.821289 -6.629456,-23.523682q0,-16.172546 -2.651733,-20.583252q-2.651794,-5.88092 -1.325928,-5.88092q1.325928,0 2.651794,-23.523682q1.325867,-23.523743 -25.191895,-91.154358q-23.865967,-66.160461 -25.191833,-73.511658q-1.325928,-7.351135 3.977661,-8.82135q3.977661,-1.470276 3.977661,-2.940491q1.325867,-1.470215 -1.325928,-8.821411q0,-5.88092 -13.25885,-47.047424q-13.25885,-39.696228 -13.25885,-55.868774q-2.651794,-16.172546 -2.651794,-20.583252q-2.651794,-5.88092 -2.651794,-14.702332q0,-8.82135 5.303589,-36.755798q5.303528,-27.934387 2.651733,-27.934387q-1.325867,0 -7.955322,-4.410706q-5.303528,-4.410645 -7.955322,-11.761841q-2.651794,-7.351196 -3.977661,-16.172546q-1.325867,-7.351196 3.977661,-20.583282q2.651794,-14.702301 3.977661,-26.464142q1.325867,-11.761871 -2.651794,-16.172546q-3.977661,-4.410706 -1.325867,-24.993988q2.651794,-22.053467 -2.651794,-32.345093q-2.651733,-8.821381 -10.607056,-23.523682q-5.303589,-13.232086 -15.910706,-44.106964q-7.955322,-29.404633 -10.607056,-47.047424l0,-16.172546l-1.325928,0l0,1.470215l-1.325867,0l-1.325867,0l0,1.470245l-1.325928,0l0,0l0,1.470245l0,0l0,0l-1.325867,0l0,0l-1.325867,1.470245l-1.325928,1.470215l0,0l-1.325867,0l-2.651794,8.821381q-5.303528,8.821411 -7.955322,11.761871q-2.651794,1.470215 -10.607117,17.642761q-7.955322,17.642792 -10.607056,61.749756q-2.651794,45.577209 0,58.809235q2.651733,13.232117 2.651733,19.113068q0,5.88092 -2.651733,13.232056q0,8.821411 5.303528,35.285553q5.303528,24.993958 18.562439,67.630676q10.607117,42.636719 9.281189,67.630676q-1.325867,23.523743 7.955322,82.333008q9.28125,60.27948 10.607117,108.79718q1.325867,48.517639 1.325867,57.33905q0,8.82135 -3.977661,14.702271q-3.977661,5.88092 -1.325867,10.291626q0,5.88092 0,52.928345q0,45.577148 -3.977661,54.398621q-2.651794,7.351074 -7.955322,10.291626q-5.303528,0 -14.584778,0q-9.281189,0 -11.932983,-4.410706q-3.977661,-2.94043 -3.977661,-7.351135q-2.651794,-2.940552 -1.325867,-29.404724q1.325867,-26.464172 -6.629456,-32.345093q-7.955322,-5.88092 -10.607117,-11.761841q-2.651733,-5.88092 0,-23.523682q2.651794,-17.642761 5.303589,-26.464172q2.651733,-7.351135 0,-20.583252q-2.651794,-13.232056 -3.977661,-23.523682q-1.325928,-10.291626 -2.651794,-32.345093q-1.325867,-20.583313 -11.932983,-58.809326q-10.607117,-36.755798 -10.607117,-38.226013l0,-1.470276l-1.325867,-1.470215l-1.325928,-2.94043l0,-2.940491l0,-1.470215l-1.325867,-1.470276l-1.325867,-1.470215l0,1.470215l0,2.940491l-2.651794,11.761841q0,10.291626 0,82.333069q2.651794,72.041321 7.955322,95.565002q6.629456,22.053467 11.932983,33.815369q6.629456,11.761841 0,19.112976q-5.303528,7.351135 -9.281189,8.821411q-5.303589,1.470215 -9.28125,16.172546q-3.977661,13.232056 -15.910645,26.464233q-11.932983,11.761841 -18.562439,17.642761q-6.629395,5.88092 -7.955322,5.88092l-1.325867,0l0,1.470215l0,0l-1.325928,0l0,1.470154l-2.651733,0l-2.651794,0l0,-2.940369l-1.325867,-1.470215l0,-1.470337l0,-1.470154l-1.325928,-1.470215l-1.325867,-2.940552l0,-5.88092q0,-5.88092 5.303528,-10.291626q3.977661,-4.410706 3.977661,-14.702209q1.325928,-8.821472 -6.629395,-33.81543q-5.303589,-24.993896 -7.955322,-27.934387q-2.651794,-2.94043 -5.303589,-10.291626q-2.651733,-8.82135 -3.977661,-29.404602q-1.325867,-20.583252 2.651794,-52.928406q3.977661,-30.874878 -6.629456,-61.749695q-7.955322,-30.874878 -13.25885,-64.690247q-2.651794,-35.285522 -1.325928,-102.916199q1.325928,-69.100891 -2.651733,-91.154358q-3.977661,-20.583282 -6.629456,-49.987915q-2.651794,-29.404663 -2.651794,-32.345123q-2.651733,-4.410645 -5.303528,-24.993927q-5.303528,-20.583221 -6.629456,-33.815308q-1.325867,-13.232086 -6.629456,-20.583252q-5.303528,-8.821381 -38.450745,-38.226044l-33.147156,-29.404633l-1.325928,0l0,0l-1.325867,-1.470245l-1.325867,-1.470215l-1.325928,0l-1.325867,0l0,-1.470245l-1.325867,0l0,0l0,-1.470215l0,0l0,0l-1.325928,2.94046l-1.325867,4.410675l0,38.226074q0,38.226013 0,51.458099q0,13.232086 5.303528,49.987854q5.303589,36.755829 10.607117,58.809296q5.303589,22.053467 6.629456,35.285583q1.325867,11.761841 6.629456,22.053467q5.303528,10.291626 7.955322,24.993896q5.303528,16.172607 7.955322,26.464233q2.651733,8.82135 2.651733,19.112976q0,10.291626 2.651794,30.874939q5.303589,22.053467 6.629456,36.755737q1.325867,14.702332 5.303528,19.113037q3.977661,2.94043 6.629456,20.583252q2.651794,16.172546 5.303528,49.987854q2.651794,35.285645 11.933044,73.511658q9.281189,38.226013 7.955322,44.106934q-1.325928,7.351135 -1.325928,8.82135l0,1.470276l-1.325867,1.470215l-1.325867,1.470215l0,0l0,1.470276l-2.651794,0l-3.977661,0l-3.977661,0q-3.977661,0 -13.258911,-8.821411q-7.955322,-10.291626 -10.607056,-29.404602q0,-20.583252 -2.651794,-23.523804q0,-1.470154 -6.629456,-11.76178q-6.629456,-10.291687 -6.629456,-19.113098q0,-8.82135 1.325928,-8.82135q1.325867,-1.470154 7.955322,-5.88092q6.629456,-5.88092 -2.651794,-22.053467q-9.281189,-17.642822 -11.932983,-19.113037q-2.651794,-1.470215 -11.932983,-5.88092q-9.281189,-4.410706 -9.281189,-13.232056q-2.651794,-10.291687 -3.977722,-17.642822q-2.651733,-8.821411 -13.25885,-39.696228l-11.932983,-32.345154l0,-1.470154l0,-1.470276l-1.325867,-1.470215l-1.325928,-1.470276l0,0l0,-1.470215l-2.651733,0l-1.325928,0l0,1.470215l-1.325867,0l0,0l0,1.470276l0,0l0,0l-1.325928,0l0,0l0,1.470215l-1.325867,0l0,1.470276l0,1.470154l-34.473083,77.922302q-34.473083,77.922302 -37.124847,86.743652q-3.977661,10.291626 -11.932983,14.702332q-7.955322,4.410767 -10.607117,5.88092q-3.977661,1.470337 -17.236542,30.874939q-13.258881,30.874878 -17.236542,61.749695q-3.977661,30.874878 -9.281219,47.047424q-5.303528,16.172546 -7.955322,29.404602q-2.651764,11.761963 -9.281219,14.702332q-5.303528,1.470215 -6.629425,10.291687q-2.651764,8.821411 -5.303558,14.702271q-2.651764,5.880981 -2.651764,14.702393q2.651764,8.821289 9.281219,24.993896q6.629425,14.702393 9.281189,24.994019q0,10.291626 0,11.761841q0,1.470093 -7.955322,5.880859q-6.629425,4.410767 -15.910645,1.470215q-9.281219,-2.94043 -15.910645,-8.821289q-7.955322,-4.410767 -11.933014,-16.172607q-3.977661,-11.761841 -7.955322,-22.053467q-3.977661,-8.821411 -13.258881,-26.464233q-9.281189,-17.642822 -7.955322,-23.523743q1.325897,-7.351074 1.325897,-14.702209q0,-8.821472 -2.651764,-14.702393q-2.651794,-7.351074 -2.651794,-16.172546q0,-8.821411 -1.325897,-27.934387l-1.325867,-20.583252l0,0l0,0l-1.325897,1.470215l-1.325897,1.470276l-1.325867,0l-1.325897,0l-1.325897,1.470215l-1.325867,1.470215l-5.303558,1.470215q-3.977661,2.940491 -6.629456,10.291626q-2.651764,5.88092 -7.955307,8.821411q-5.303558,2.94043 -7.955338,4.410706q-1.325882,1.470215 -6.62944,8.82135q-5.303543,7.351196 -6.62944,19.113037q-1.325882,10.291687 -1.325882,11.761841l0,1.470215l-1.325882,0l0,1.470337l-1.325897,0l-1.325882,0l-1.325882,1.470215l-1.325897,1.470154l-3.977661,0l-2.651779,0l-1.325882,-1.470154l-1.325897,0l0,-1.470215q0,-1.470337 -1.325882,-1.470337q0,-1.470215 -5.303543,-10.291626q-3.977676,-10.291504 -6.62944,-24.993896q0,-14.702332 1.325882,-22.053467q1.325882,-8.821411 0,-13.232117q-2.651779,-4.410706 -3.977661,-10.291626q-2.651779,-5.88092 -2.651779,-20.583191q0,-14.702332 3.977661,-19.113037q2.651779,-4.410706 17.236542,-4.410706q13.258881,0 31.821304,-27.934387q18.562439,-27.934387 29.169525,-39.696228q10.607117,-11.761841 13.258881,-19.113098q2.651794,-7.351135 3.977661,-10.291626q1.325897,-1.470215 1.325897,-2.94043q0,-2.940491 -10.607086,-39.696289q-7.955353,-36.755798 -15.910675,-48.517639q-7.955322,-10.291626 -7.955322,-44.106934q0,-35.285583 0,-45.577209q1.325897,-10.291626 2.651794,-10.291626q1.325867,0 2.651764,-10.291626q0,-10.291626 -11.932983,-42.636719q-13.258881,-30.874878 -21.214218,-38.226044q-9.281204,-5.88092 -14.584763,-17.642761q-5.303558,-11.761841 -6.62944,-14.702332q-2.651779,-1.470215 -14.584763,-17.642761q-10.607101,-14.702362 -11.932999,-14.702362q-1.325882,0 -9.281204,-11.761841q-9.281219,-8.82135 -17.236542,-35.285553q-9.281219,-24.993927 -9.281219,-38.226013q-2.651779,-11.761871 -7.955322,-24.993927q-6.62944,-13.232117 -9.281219,-14.702332q-2.651779,-1.470245 -3.977661,-8.821411q-2.651779,-7.351135 -5.303551,-13.232086q-5.303551,-5.88092 -5.303551,-19.113007q-2.651779,-13.232101 -5.303551,-17.642792q-2.651779,-4.41069 -10.607101,-30.874878q-7.95533,-26.464157 -6.62944,-29.404617q1.32589,-1.47023 -3.977661,-20.583252q-2.651779,-19.113007 -7.95533,-27.934402q-2.651779,-8.821388 -22.540092,-33.815338q-19.888317,-23.523712 -17.236542,-24.993942q2.651775,-1.47023 2.651775,-2.94046q0,-1.47023 -3.977665,-5.880928l-2.651775,-4.410694l0,0l-1.325886,0l0,-1.470238l0,-1.47023l1.325886,0l1.32589,0l2.651775,0l2.651775,0l0,0l0,0l1.325886,0l0,0l0,1.47023q1.32589,0 1.32589,-4.410694l0,-2.94046l5.303551,2.94046q6.62944,2.940464 9.281212,4.410694q1.32589,1.470238 2.651779,1.470238l0,0l1.32589,1.47023l1.32589,1.47023l0,0l1.325882,0l0,0l0,0l0,1.470234l0,0l1.32589,0l0,-1.470234l0,0l1.32589,0l0,0l0,-1.47023l-1.32589,-1.47023q-1.32589,-2.940468 -1.32589,-5.880932l-2.651772,-2.94046l0,-2.940468l0,-1.47023l2.651772,0l1.32589,1.47023l0,0l1.32589,0l0,0l0,0l1.32589,1.47023l1.325882,1.470238l0,0l0,0l1.32589,1.47023l1.32589,1.47023l5.303551,8.821392q5.303551,10.291622 5.303551,11.761852l0,1.47023l1.32589,0l0,1.47023l0,0l1.32589,0l0,0l0,0l1.325882,1.470245l1.32589,1.47023l1.32589,0l1.32589,0l1.325882,0l1.32589,0l0,0l0,0l1.32589,-7.351166l1.32589,-7.351158l0,0l0,0l2.651772,0l1.32589,0l0,0l1.32589,0l0,2.940468l0,1.47023l0,19.113014q0,19.113014 -2.651779,23.523712q0,4.41069 6.62944,24.993935q7.95533,20.583252 11.932991,22.053482q2.651772,0 6.629433,8.821396q3.977676,8.821396 14.584778,33.815323q11.932983,24.993942 14.584763,27.934418q2.651779,5.88092 9.281204,1.47023q6.62944,-4.410706 19.888321,-4.410706q13.258881,0 17.236542,2.940475q3.977661,0 5.303558,1.47023l1.325882,1.47023l1.325882,0l2.651779,0l2.651779,0l2.651779,0l0,0l0,0l-1.325897,-2.94046q-1.325882,-1.47023 -1.325882,-1.47023q0,-1.470245 -1.325882,-5.880936q-1.325897,-5.88092 1.325882,-13.232101l5.303558,-5.88092l0,0l0,0l9.281204,0q9.281219,0 11.932999,4.41069q2.651764,4.410721 2.651764,5.880951q0,1.47023 5.303558,4.41069q5.303558,2.94046 7.955322,20.583237q2.651794,16.172562 7.955322,32.345108q5.303558,14.702332 25.191864,35.285553q19.888336,17.642792 53.035522,29.404663q33.147186,8.821381 43.754303,8.821381q11.932983,0 14.584747,2.94046q2.651794,0 3.977692,0l2.651764,0l0,0l0,0l1.325897,0l0,0l0,-1.470245l1.325867,0l0,-1.470215l0,-2.94046l2.651794,0l2.651764,0l0,-1.470245l0,0l0,-2.94046l0,-2.94046l0,0l0,-1.470215l-5.303558,0q-6.629425,0 -7.955322,-1.470245q-1.325897,-1.470245 -6.629425,-1.470245q-3.977661,0 -3.977661,-17.642792q0,-16.172516 5.303528,-32.345062q5.303558,-17.642792 10.607117,-27.934418q7.955322,-10.291641 17.236542,-14.702332q10.607086,-4.41069 22.5401,-4.41069q11.932983,0 18.562408,5.88092q7.955353,5.88092 14.584778,20.583237q6.629425,13.232086 11.932983,29.404663q5.303558,14.702301 3.977661,20.583221q-1.325867,7.351196 -2.651764,7.351196l0,1.470215l0,0l-1.325897,0l0,0l0,0l0,1.470245l0,0l-1.325867,1.470215l-1.325897,1.470245l0,0l0,1.470215l0,0l0,0l1.325897,0l0,0l2.651764,0l2.651764,0l1.325897,0l1.325897,0l0,-1.470215l1.325867,0l0,0l0,-1.470245l0,0l0,0l1.325897,0l0,0l0,-1.470215l1.325897,0l0,0l0,-1.470245l0,0l0,0l2.651764,-2.94046q0,-2.940491 3.977661,-88.213928q3.977661,-86.743668 0,-94.094833q-2.651794,-8.821388 -9.281219,-17.642784q-7.955322,-8.821388 -7.955322,-19.113014q0,-10.291626 5.303558,-13.232086q3.977661,-2.94046 5.303558,-5.880936q1.325867,-2.94046 5.303558,-2.94046q2.651733,0 5.303528,2.94046q2.651794,2.940475 5.303589,1.470245q2.651733,-1.470245 5.303528,-2.940475q2.651794,-1.47023 2.651794,2.940475q1.325867,2.94046 3.977661,4.41069q1.325867,0 2.651733,1.47023q0,1.47023 3.977661,2.940468q3.977661,1.47023 3.977661,8.821388q-1.325867,7.351151 -2.651733,10.291626q-1.325928,1.47023 -1.325928,4.41069q1.325928,4.410698 2.651794,4.410698q2.651794,1.47023 2.651794,17.642784q0,16.172546 1.325867,29.404633q1.325867,11.761856 7.955322,29.404633q6.629456,19.113037 11.932983,27.934418q5.303589,7.351151 10.607117,10.291626q6.629456,2.94046 9.281189,2.94046q2.651794,2.94046 10.607117,2.94046q7.955322,2.94046 11.932983,5.88092q5.303589,5.880951 10.607117,2.94046q6.629456,-2.94046 10.607117,-2.94046q2.651794,0 5.303528,2.94046q2.651794,2.940491 6.629456,2.940491q3.977661,-2.940491 10.607117,-1.47023q6.629395,1.47023 9.281189,4.41069q2.651794,2.94046 6.629456,1.47023q3.977661,0 6.629456,-2.94046q1.325867,-1.47023 2.651733,-2.94046l2.651794,-1.470261l1.325867,0l1.325928,0l0,-8.821381q0,-10.291626 -7.955322,-23.523697q-5.303589,-11.761871 -5.303589,-35.285568q0,-23.523727 3.977661,-29.404648q3.977661,-5.88092 13.258911,-11.761856q9.281189,-5.88092 22.5401,-5.88092q11.932983,0 21.214172,5.88092q7.955322,7.351166 10.607117,11.761856q2.651794,5.88092 5.303528,17.642792q0,13.232086 0,20.583237q0,5.88092 -1.325867,11.761871q-1.325867,5.880905 -3.977661,5.880905q-2.651794,0 -3.977661,8.821411q-1.325867,7.351151 -1.325867,10.291611l0,2.94046l-1.325928,4.410706l0,2.94046l6.629456,-1.47023q7.955322,-1.47023 10.607117,-4.410706q3.977661,-2.94046 13.25885,-7.351151q10.607117,-4.41069 15.910645,-5.88092q5.303589,-1.47023 9.28125,-7.351181q5.303528,-5.88092 11.932983,-11.761826q7.955322,-5.880951 11.932983,-7.351181q3.977661,0 5.303528,-24.993942q1.325928,-23.523697 1.325928,-41.166481q0,-17.642799 -2.651794,-26.464188q-2.651794,-7.351151 -1.325867,-14.702309q1.325867,-8.821396 3.977661,-11.761856q2.651733,-4.410698 2.651733,-7.351162q0,-2.940468 1.325928,-4.410698l1.325867,-1.47023l0,0l0,-1.470234l0,0l0,0l1.325867,0l0,0l0,-1.47023l1.325928,0l0,0l0,1.47023l0,0l0,0l2.651733,2.940464q0,1.47023 1.325928,2.940468l1.325867,2.94046l0,0l0,0l0,-1.47023l0,0l1.325867,0l0,-1.47023l0,0l1.325928,0l0,0l0,0l1.325867,-1.470238l1.325867,0l0,-2.94046q0,-2.940464 -2.651733,-4.410694q-2.651794,-2.940468 -3.977661,-5.880932q0,-1.47023 6.629395,0q5.303589,2.940464 7.955383,5.880932q2.651733,4.410694 3.977661,8.821392q1.325867,5.880924 3.977661,8.821392q2.651733,1.47023 0,14.702316q0,13.232086 -2.651794,17.642776q0,4.410706 2.651794,49.987885q5.303528,44.106979 7.955322,67.630676q2.651733,22.053467 5.303528,41.166473q5.303528,19.113007 7.955322,26.464203q2.651794,8.821381 5.303589,10.291626q2.651733,1.470215 3.977661,-13.232086q1.325867,-14.702332 3.977661,-23.523743q2.651733,-10.291595 5.303528,-26.464157q2.651794,-16.172546 6.629456,-24.993958q3.977661,-7.351151 11.932983,-13.232056q6.629456,-2.940491 18.562439,-2.940491q10.607056,0 22.5401,7.351166q11.932983,7.351151 15.910645,14.702332q3.977661,5.88092 3.977661,22.053467q0,17.642792 9.281189,41.166489q9.28125,22.053497 14.584778,32.345093q5.303528,8.821411 10.607117,13.232117q5.303528,4.410675 7.955322,11.761841q2.651733,7.351166 10.607056,11.761841q6.629517,4.410706 10.607178,11.761871q2.651733,5.88092 13.258789,54.39856q7.955322,47.047455 10.607178,54.39859q2.651733,7.351166 2.651733,14.702332q0,7.351135 -13.258911,39.696259q-11.932983,33.815369 -15.910645,35.285522q-3.977661,2.940491 -3.977661,5.880981q0,1.470215 5.303589,-2.940491q3.977661,-5.88092 14.584717,-22.053467q9.28125,-16.172546 23.866089,-30.874847q13.258789,-14.702362 25.191772,-35.285583q11.932983,-22.053467 15.910645,-29.404633q3.977661,-5.88092 9.28125,-22.053467q3.977661,-16.172546 6.629395,-17.642822q1.325928,-1.470184 2.651855,-2.94046q0,-1.470184 1.325806,-1.470184q2.651855,-1.470276 5.303589,-10.291656q3.977661,-10.291626 7.955322,-11.761841q3.977661,-1.470245 3.977661,-16.172546q1.325928,-13.232117 6.629517,-23.523712q5.303467,-10.291626 10.607056,-14.702332q6.629395,-2.94046 14.584717,-5.88092q7.955322,-2.940491 14.584839,-2.940491q6.629395,2.940491 13.258789,5.880951q6.629517,2.94046 13.258911,13.232086q5.303589,10.291626 6.629517,11.761841q1.325806,1.470245 1.325806,7.351166zm-871.108246,552.80722l-1.325897,2.94043l0,2.940491l0,1.470215l-1.325897,0l0,1.470215l0,0l-1.325867,0l0,0l0,0l0,1.470276l0,0l-1.325897,1.470215l0,1.470215l-1.325897,0l-1.325867,0l0,-1.470215l1.325867,-1.470215l0,-1.470276l0,-2.94043l1.325897,-2.940491q1.325897,-4.410706 1.325897,-17.642761q0,-13.232056 -1.325897,-30.874878q-1.325897,-17.642761 2.651764,-26.464233q5.303558,-7.351135 13.258881,-22.053467q6.629456,-14.702209 11.933014,-83.803162q5.303528,-69.100891 5.303528,-89.684143q-2.651764,-22.053467 -5.303528,-36.755798q-2.651794,-14.702332 -5.303558,-36.755798q-2.651794,-23.523682 -5.303558,-27.934448q-2.651764,-4.410645 -7.955322,-11.761841q-5.303558,-7.351135 1.325897,-20.583252q6.629425,-13.232086 13.25885,-27.934387q6.629456,-14.702301 6.629456,-22.053467q-2.651764,-7.351166 -14.584778,-23.523712q-11.932983,-16.172577 -19.888306,-20.583221q-6.629456,-4.410706 -15.910645,-10.291626q-7.955353,-5.88092 -18.562439,-20.583282l-10.607117,-13.232086l-2.651764,-1.470215q-2.651764,-2.94046 -2.651764,-5.88092q0,-4.410706 6.629425,-2.940491q6.629456,2.940491 42.428406,17.642792q35.798981,16.172546 38.450745,23.523743q2.651794,5.88092 9.281219,8.821381q6.629456,1.470184 19.888306,29.404633q13.258881,27.934387 15.910675,38.226013q2.651764,11.761841 5.303558,16.172546q0,4.410675 0,20.583221q0,16.172546 2.651764,19.113037q0,2.940491 0,20.583252q0,16.172546 -3.977661,29.404663q-3.977661,14.702271 -6.629456,32.345093q-2.651764,19.112976 -6.629425,55.868835q-3.977661,35.285522 -6.629456,42.636658q-2.651764,7.351196 -7.955322,22.053528q-5.303528,13.232056 -18.562408,52.928284q-10.607117,38.226135 -21.214203,77.922363q-7.955353,39.696228 -9.281219,42.636719zm654.988556,-404.313812l0,1.470276l-2.651794,0l-2.651733,0l0,-1.470276l-1.325928,0l0,-2.94046l0,-2.94046l0,-8.821381q1.325928,-7.351166 2.651794,-19.113007q1.325867,-8.821411 2.651794,-7.351166q2.651733,1.470245 0,10.291626q0,10.291626 -2.651794,14.702301q0,2.94046 1.325867,8.821381q1.325928,5.880981 2.651794,7.351166z" stroke-width="1px" stroke="#010101" fill-rule="evenodd" fill="#010101" id="svg_3"/>
 </g>
</svg>